HIERARCHY
ROOT Pelvis
{
	OFFSET 0.000000 0.000000 0.000000
	CHANNELS 6 Xposition Yposition Zposition Xrotation Yrotation Zrotation
	JOINT LeftUpLeg_virtual
	{
		OFFSET 0.000000 0.000000 0.000000
		CHANNELS 3 Xrotation Yrotation Zrotation
		JOINT LeftUpLeg
		{
			OFFSET 8.479700 -4.795502 -0.379100
			CHANNELS 3 Xrotation Yrotation Zrotation
			JOINT LeftLeg
			{
				OFFSET 0.024144 -32.555107 0.112900
				CHANNELS 3 Xrotation Yrotation Zrotation
				JOINT LeftFoot
				{
					OFFSET -0.024144 -32.638630 -3.012600
					CHANNELS 3 Xrotation Yrotation Zrotation
					JOINT LeftToeBase
					{
						OFFSET 0.970200 -13.225400 11.864200
						CHANNELS 3 Xrotation Yrotation Zrotation
						End Site
						{
							OFFSET 0 0 0
						}
					}
				}
			}
		}
	}
	JOINT RightUpLeg_virtual
	{
		OFFSET 0.000000 0.000000 0.000000
		CHANNELS 3 Xrotation Yrotation Zrotation
		JOINT RightUpLeg
		{
			OFFSET -8.479700 -4.795502 -0.379100
			CHANNELS 3 Xrotation Yrotation Zrotation
			JOINT RightLeg
			{
				OFFSET -0.023144 -32.555092 0.112900
				CHANNELS 3 Xrotation Yrotation Zrotation
				JOINT RightFoot
				{
					OFFSET 0.023144 -32.638641 -3.012700
					CHANNELS 3 Xrotation Yrotation Zrotation
					JOINT RightToeBase
					{
						OFFSET -0.970200 -13.225400 11.864200
						CHANNELS 3 Xrotation Yrotation Zrotation
						End Site
						{
							OFFSET 0 0 0
						}
					}
				}
			}
		}
	}
	JOINT Hips_virtual
	{
		OFFSET 0.000000 0.000000 0.000000
		CHANNELS 3 Xrotation Yrotation Zrotation
		JOINT Hips
		{
			OFFSET -0.000000 -0.000000 -0.000000
			CHANNELS 3 Xrotation Yrotation Zrotation
			JOINT Spine
			{
				OFFSET 0.000000 7.722000 1.166200
				CHANNELS 3 Xrotation Yrotation Zrotation
				JOINT Spine1
				{
					OFFSET 0.000000 12.024101 0.248800
					CHANNELS 3 Xrotation Yrotation Zrotation
					JOINT Spine2
					{
						OFFSET 0.000000 11.502998 -0.491200
						CHANNELS 3 Xrotation Yrotation Zrotation
						JOINT Neck_virtual
						{
							OFFSET 0.000000 0.000000 0.000000
							CHANNELS 3 Xrotation Yrotation Zrotation
							JOINT Neck
							{
								OFFSET 0.000000 18.430702 -3.123100
								CHANNELS 3 Xrotation Yrotation Zrotation
								JOINT Head
								{
									OFFSET 0.000000 9.051102 1.034000
									CHANNELS 3 Xrotation Yrotation Zrotation
									End Site
									{
										OFFSET 0 0 0
									}
								}
							}
						}
						JOINT LeftShoulder_virtual
						{
							OFFSET 0.000000 0.000000 0.000000
							CHANNELS 3 Xrotation Yrotation Zrotation
							JOINT LeftShoulder
							{
								OFFSET 6.197800 13.665199 -4.064700
								CHANNELS 3 Xrotation Yrotation Zrotation
								JOINT LeftArm
								{
									OFFSET 7.778100 -0.187103 -1.709300
									CHANNELS 3 Xrotation Yrotation Zrotation
									JOINT LeftForeArm
									{
										OFFSET 22.049376 0.000000 0.000000
										CHANNELS 3 Xrotation Yrotation Zrotation
										JOINT LeftHand
										{
											OFFSET 23.009392 0.000000 0.000000
											CHANNELS 3 Xrotation Yrotation Zrotation
											End Site
											{
												OFFSET 0 0 0
											}
										}
									}
								}
							}
						}
						JOINT RightShoulder_virtual
						{
							OFFSET 0.000000 0.000000 0.000000
							CHANNELS 3 Xrotation Yrotation Zrotation
							JOINT RightShoulder
							{
								OFFSET -6.197800 13.665199 -4.064700
								CHANNELS 3 Xrotation Yrotation Zrotation
								JOINT RightArm
								{
									OFFSET -7.778100 -0.187103 -1.709300
									CHANNELS 3 Xrotation Yrotation Zrotation
									JOINT RightForeArm
									{
										OFFSET -22.049376 0.000000 0.000000
										CHANNELS 3 Xrotation Yrotation Zrotation
										JOINT RightHand
										{
											OFFSET -23.009392 0.000000 0.000000
											CHANNELS 3 Xrotation Yrotation Zrotation
											End Site
											{
												OFFSET 0 0 0
											}
										}
									}
								}
							}
						}
					}
				}
			}
		}
	}
}
MOTION
Frames: 9
Frame Time: 0.03333333
-0.018141 77.758072 1.153664 0.000000 0.000000 0.000000 26.285638 11.833993 2.185789 -46.686860 8.595148 14.534141 42.497324 10.182298 -5.327340 8.240192 21.496214 -16.938965 0.000000 0.000000 0.000000 26.285638 11.833993 2.185789 -64.165748 -12.108021 -11.511578 36.695628 3.990985 -4.525839 0.552499 -9.818867 -0.372237 0.000000 0.000000 0.000000 26.285638 11.833993 2.185789 0.000000 0.000000 0.000000 11.253989 -1.515449 0.644311 9.276076 2.486270 -1.078453 0.000000 0.000000 0.000000 9.399705 1.253079 -3.812947 -9.096160 7.493537 -0.883478 0.000000 0.000000 0.000000 9.399705 1.253079 -3.812947 0.803795 0.857152 -9.303938 -29.535886 -3.682384 -62.075109 -0.000002 -41.672780 -0.000011 0.000000 0.000000 0.000000 9.399705 1.253079 -3.812947 5.720873 24.427847 1.421181 -24.663784 -14.041414 65.136434 -0.000003 37.034276 0.000008 0.000000 0.000000 0.000000 
-0.066584 78.565933 2.200756 0.000000 0.000000 0.000000 26.209487 12.155790 2.429943 -46.924786 9.001401 13.304327 39.866124 10.165822 -5.318250 8.088508 23.000105 -17.493977 0.000000 0.000000 0.000000 26.209487 12.155790 2.429943 -61.773665 -12.261410 -11.470220 34.309461 4.207171 -4.535825 0.633322 -10.207655 -0.153527 0.000000 0.000000 0.000000 26.209487 12.155790 2.429943 0.000000 0.000000 -0.000001 10.879784 -1.035021 0.675108 9.270623 2.730509 -1.057022 0.000000 0.000000 0.000000 9.403910 1.489580 -3.792870 -9.298693 7.419097 -1.033892 0.000000 0.000000 0.000000 9.403910 1.489580 -3.792870 0.819693 0.837070 -9.277589 -28.935717 -1.468109 -61.169767 0.000000 -41.886644 0.000001 0.000000 0.000000 0.000000 9.403910 1.489580 -3.792870 5.725881 24.411902 1.390779 -24.662560 -15.375733 64.479964 -0.000006 37.223199 0.000003 0.000000 0.000000 0.000000 
0.047448 79.296402 3.612312 0.000000 0.000000 0.000000 26.025070 12.692754 2.584951 -46.753731 9.289843 12.253045 37.010213 9.827198 -5.297931 9.430243 24.452216 -18.749907 0.000000 0.000000 0.000000 26.025070 12.692754 2.584951 -59.292660 -12.531163 -11.714737 32.530244 4.112138 -4.545870 0.095426 -10.349837 0.200980 0.000000 0.000000 0.000000 26.025070 12.692754 2.584951 -0.000001 0.000000 0.000000 10.467577 -0.401634 0.807040 9.248249 2.964292 -0.996380 0.000000 0.000000 0.000000 9.387520 1.751387 -3.651128 -9.472121 7.196017 -1.232979 0.000000 0.000000 0.000000 9.387520 1.751387 -3.651128 0.864102 0.779455 -9.200430 -27.914290 0.938285 -60.038497 -0.000001 -42.148865 0.000009 0.000000 0.000000 0.000000 9.387520 1.751387 -3.651128 5.738789 24.365542 1.303485 -24.740738 -16.700521 63.463263 -0.000021 37.406511 0.000017 0.000000 0.000000 0.000000 
0.167867 79.962334 5.017157 0.000000 0.000000 0.000000 25.743739 13.446283 2.668246 -46.605471 9.481682 11.266458 34.040751 9.031721 -5.270840 11.205848 26.585203 -19.960763 0.000000 0.000000 0.000000 25.743739 13.446283 2.668246 -56.790380 -12.956998 -12.051549 30.873582 4.227244 -4.554235 -0.495404 -10.798754 0.547750 0.000000 0.000000 0.000000 25.743739 13.446283 2.668246 -0.000001 -0.000001 -0.000000 10.128540 0.345961 1.017140 9.210893 3.190167 -0.903509 0.000000 0.000000 0.000000 9.351828 2.036267 -3.375820 -9.624991 6.855362 -1.477742 0.000000 0.000000 0.000000 9.351828 2.036267 -3.375820 0.932214 0.688367 -9.075185 -26.479329 3.102034 -58.698441 0.000009 -42.442987 0.000019 0.000000 0.000000 0.000000 9.351828 2.036267 -3.375820 5.756296 24.290974 1.165177 -24.886535 -18.127276 62.390179 0.000002 37.716708 -0.000017 0.000000 0.000000 0.000000 
0.289353 80.496025 6.413838 0.000000 0.000000 0.000000 25.326659 14.249848 2.735019 -46.413389 9.595997 10.317898 31.319651 8.280272 -5.250348 12.390530 27.523369 -20.350818 0.000000 0.000000 0.000000 25.326659 14.249848 2.735019 -54.453478 -13.535551 -12.447798 29.693114 4.573660 -4.554225 -1.287162 -11.419894 0.820050 0.000000 0.000000 0.000000 25.326659 14.249848 2.735019 0.000001 -0.000000 -0.000001 9.974141 1.169838 1.289384 9.162366 3.405353 -0.814595 0.000000 0.000000 0.000000 9.299429 2.332555 -3.026502 -9.786414 6.437165 -1.739179 0.000000 0.000000 0.000000 9.299429 2.332555 -3.026502 1.019371 0.567893 -8.904578 -24.750285 5.026881 -57.223093 -0.000001 -42.830395 0.000013 0.000000 0.000000 0.000000 9.299429 2.332555 -3.026502 5.775055 24.190525 0.981692 -25.353324 -19.271681 60.878118 -0.000004 38.352759 0.000009 0.000000 0.000000 0.000000 
0.417963 80.847946 7.804064 0.000000 0.000000 0.000000 24.819164 15.051389 2.711894 -46.248293 9.604796 9.482777 29.054638 7.882697 -5.244060 12.935856 27.417151 -20.226345 0.000000 0.000000 0.000000 24.819164 15.051389 2.711894 -52.432787 -14.206674 -12.839398 29.276752 4.985549 -4.539856 -2.434118 -12.096751 1.026954 0.000000 0.000000 0.000000 24.819164 15.051389 2.711894 -0.000001 0.000000 0.000000 10.070515 2.033737 1.608590 9.100985 3.625118 -0.668954 0.000000 0.000000 0.000000 9.229828 2.660004 -2.563397 -9.837889 6.017710 -1.993812 0.000000 0.000000 0.000000 9.229828 2.660004 -2.563397 1.120956 0.422145 -8.691324 -22.881923 6.478802 -55.810644 0.000003 -43.215024 0.000005 0.000000 0.000000 0.000000 9.229828 2.660004 -2.563397 5.791601 24.066542 0.758849 -25.787249 -20.375597 59.503652 0.000006 39.185430 0.000013 0.000000 0.000000 0.000000 
0.553819 81.084503 9.180058 0.000000 0.000000 0.000000 24.164847 15.813689 2.602990 -46.302614 9.522990 8.836733 27.367950 7.567847 -5.246537 13.207161 27.577393 -20.189486 0.000000 0.000000 0.000000 24.164847 15.813689 2.602990 -50.474149 -15.047175 -13.160222 29.208133 5.353130 -4.520158 -3.744310 -12.637161 1.163224 0.000000 0.000000 0.000000 24.164847 15.813689 2.602990 -0.000001 -0.000001 -0.000001 10.364398 2.909446 1.969562 9.029339 3.848999 -0.485218 0.000000 0.000000 0.000000 9.145109 3.011634 -2.019326 -9.866931 5.570464 -2.271291 0.000000 0.000000 0.000000 9.145109 3.011634 -2.019326 1.232414 0.255215 -8.438168 -20.756007 7.703444 -54.556218 0.000005 -43.647412 0.000009 0.000000 0.000000 0.000000 9.145109 3.011634 -2.019326 5.802513 23.921440 0.502427 -27.032852 -21.123815 57.266037 0.000020 40.313074 -0.000015 0.000000 0.000000 0.000000 
0.694097 81.075264 10.555378 0.000000 0.000000 0.000000 23.484998 16.565922 2.476025 -46.743851 9.426594 8.322177 26.911587 7.072768 -5.260397 12.634607 28.123980 -20.272008 0.000000 0.000000 0.000000 23.484998 16.565922 2.476025 -49.110136 -15.848493 -13.584158 30.312089 5.764556 -4.493137 -5.647008 -13.199802 1.168776 0.000000 0.000000 0.000000 23.484998 16.565922 2.476025 0.000000 0.000000 0.000000 10.723123 3.760988 2.359402 8.950442 4.076251 -0.284396 0.000000 0.000000 0.000000 9.047937 3.379761 -1.429446 -9.810996 5.020573 -2.543280 0.000000 0.000000 0.000000 9.047937 3.379761 -1.429446 1.349144 0.071115 -8.147915 -18.571916 8.707398 -53.553331 -0.000007 -44.106247 -0.000012 0.000000 0.000000 0.000000 9.047937 3.379761 -1.429446 5.804319 23.757684 0.218165 -28.988713 -21.428062 54.714275 0.000005 41.256863 -0.000005 0.000000 0.000000 0.000000 
0.836938 80.907372 11.928759 0.000000 0.000000 0.000000 22.782620 17.308166 2.333218 -47.195682 9.335911 7.869437 26.787879 5.771553 -5.270829 11.582041 29.078748 -20.942634 0.000000 0.000000 0.000000 22.782620 17.308166 2.333218 -48.025085 -16.645816 -14.045307 31.984584 5.997751 -4.469513 -7.866242 -13.558784 1.096519 0.000000 0.000000 0.000000 22.782620 17.308166 2.333218 0.000000 0.000001 -0.000001 10.981497 4.553095 2.764148 8.868400 4.305476 -0.097896 0.000000 0.000000 0.000000 8.942266 3.754660 -0.837420 -9.727873 4.422090 -2.775993 0.000000 0.000000 0.000000 8.942266 3.754660 -0.837420 1.466539 -0.126261 -7.823428 -16.447775 9.549540 -52.852410 0.000013 -44.647915 0.000017 0.000000 0.000000 0.000000 8.942266 3.754660 -0.837420 5.793707 23.577822 -0.088260 -31.526688 -20.921670 52.242601 -0.000003 42.178850 0.000012 0.000000 0.000000 0.000000 
